<svg xmlns="http://www.w3.org/2000/svg" viewBox="0 0 320 200">
  <rect width="320" height="200" fill="#05070e"/>
  <rect x="20" y="16" width="280" height="168" rx="8" fill="#080c18" stroke="rgba(255,42,95,0.06)" stroke-width="1"/>
  <rect x="28" y="24" width="60" height="16" rx="4" fill="rgba(255,255,255,0.01)" stroke="rgba(255,255,255,0.03)" stroke-width="1"/>
  <rect x="92" y="24" width="48" height="16" rx="4" fill="rgba(255,255,255,0.01)" stroke="rgba(255,255,255,0.03)" stroke-width="1"/>
  <rect x="144" y="24" width="52" height="16" rx="4" fill="rgba(255,255,255,0.01)" stroke="rgba(255,255,255,0.03)" stroke-width="1"/>
  <rect x="200" y="24" width="48" height="16" rx="4" fill="rgba(255,255,255,0.01)" stroke="rgba(255,255,255,0.03)" stroke-width="1"/>
  <text x="32" y="35" font-family="monospace" font-size="5" fill="#475569" font-weight="700">SCORE</text>
  <text x="56" y="35" font-family="monospace" font-size="5" fill="#e2e8f0">0</text>
  <text x="96" y="35" font-family="monospace" font-size="5" fill="#475569">COMBO</text>
  <text x="116" y="35" font-family="monospace" font-size="5" fill="#facc15">1×</text>
  <text x="148" y="35" font-family="monospace" font-size="5" fill="#475569">LIVES</text>
  <text x="176" y="35" font-family="monospace" font-size="5" fill="#e2e8f0">3</text>
  <text x="204" y="35" font-family="monospace" font-size="5" fill="#475569">BEST</text>
  <text x="228" y="35" font-family="monospace" font-size="5" fill="#e2e8f0">0</text>
  <circle cx="70" cy="80" r="10" fill="#ff2a5f"/>
  <circle cx="70" cy="80" r="3" fill="rgba(255,255,255,0.12)"/>
  <circle cx="150" cy="60" r="10" fill="#00f0ff"/>
  <circle cx="150" cy="60" r="3" fill="rgba(255,255,255,0.12)"/>
  <circle cx="250" cy="95" r="10" fill="#facc15"/>
  <circle cx="250" cy="95" r="3" fill="rgba(255,255,255,0.12)"/>
  <circle cx="110" cy="110" r="10" fill="#00f0ff"/>
  <circle cx="110" cy="110" r="3" fill="rgba(255,255,255,0.12)"/>
  <circle cx="200" cy="130" r="10" fill="#ff2a5f"/>
  <circle cx="200" cy="130" r="3" fill="rgba(255,255,255,0.12)"/>
  <polygon points="60,160 140,160 132,170 68,170" fill="#ff2a5f"/>
  <polygon points="64,160 136,160" stroke="rgba(255,255,255,0.08)" stroke-width="2"/>
</svg>
