<svg xmlns="http://www.w3.org/2000/svg" viewBox="0 0 320 200" role="img" aria-labelledby="title desc">
  <title id="title">Rain On Window preview</title>
  <desc id="desc">A rainy blue glass window with glowing city lights and falling droplets.</desc>
  <defs>
    <linearGradient id="sky" x1="0" x2="1" y1="0" y2="1">
      <stop offset="0" stop-color="#102236"/>
      <stop offset=".48" stop-color="#1f435d"/>
      <stop offset="1" stop-color="#060b12"/>
    </linearGradient>
    <linearGradient id="glass" x1="0" x2="1">
      <stop offset="0" stop-color="#dff6ff" stop-opacity=".28"/>
      <stop offset=".55" stop-color="#7bbfe5" stop-opacity=".08"/>
      <stop offset="1" stop-color="#ffffff" stop-opacity=".2"/>
    </linearGradient>
  </defs>
  <rect width="320" height="200" fill="url(#sky)"/>
  <g opacity=".48">
    <rect x="14" y="105" width="34" height="95" fill="#07101a"/>
    <rect x="63" y="82" width="42" height="118" fill="#091524"/>
    <rect x="125" y="112" width="30" height="88" fill="#07101a"/>
    <rect x="184" y="72" width="48" height="128" fill="#091524"/>
    <rect x="254" y="94" width="36" height="106" fill="#07101a"/>
  </g>
  <g fill="#ffd976" opacity=".72">
    <rect x="25" y="118" width="5" height="5"/>
    <rect x="77" y="98" width="5" height="5"/>
    <rect x="94" y="129" width="5" height="5"/>
    <rect x="198" y="91" width="5" height="5"/>
    <rect x="218" y="128" width="5" height="5"/>
    <rect x="266" y="112" width="5" height="5"/>
  </g>
  <rect x="18" y="18" width="284" height="164" rx="8" fill="url(#glass)" stroke="#bdefff" stroke-opacity=".42"/>
  <g stroke="#dff8ff" stroke-linecap="round">
    <path d="M52 22c-4 27 6 34 0 58-5 18-2 33 4 46" stroke-width="4" opacity=".68"/>
    <path d="M111 15c3 31-9 47-3 82 4 22-2 43-8 63" stroke-width="3" opacity=".48"/>
    <path d="M172 31c-7 26 7 39 1 66-4 18 0 36 7 59" stroke-width="5" opacity=".58"/>
    <path d="M250 8c-1 28 8 40 0 69-7 23 5 40 1 74" stroke-width="3" opacity=".52"/>
  </g>
  <g stroke="#9adfff" stroke-width="1.4" stroke-linecap="round" opacity=".55">
    <path d="M36 12l-14 80"/>
    <path d="M86 0L64 124"/>
    <path d="M145 24l-18 105"/>
    <path d="M215 4l-22 125"/>
    <path d="M291 18l-20 112"/>
  </g>
  <text x="160" y="166" text-anchor="middle" fill="#ecfbff" font-family="Arial, sans-serif" font-size="28" font-weight="700">Rain On Window</text>
</svg>
