<svg xmlns="http://www.w3.org/2000/svg" viewBox="0 0 320 200">
  <rect width="320" height="200" fill="#05070c"/>
  <rect x="4" y="4" width="312" height="18" rx="6" fill="rgba(255,255,255,0.01)" stroke="rgba(255,255,255,0.03)" stroke-width="0.5"/>
  <text x="10" y="16" font-family="system-ui,sans-serif" font-size="8" font-weight="700" fill="#00f0ff">Savings Tracker</text>
  <text x="106" y="16" font-family="system-ui,sans-serif" font-size="5" fill="#475569">SAVED</text>
  <text x="134" y="16" font-family="monospace" font-size="6" font-weight="700" fill="#00f0ff">$31.7K</text>
  <text x="186" y="16" font-family="system-ui,sans-serif" font-size="5" fill="#475569">TARGET</text>
  <text x="218" y="16" font-family="monospace" font-size="6" font-weight="700" fill="#00f0ff">$208K</text>
  <text x="268" y="16" font-family="system-ui,sans-serif" font-size="5" fill="#475569">PROGRESS</text>
  <text x="300" y="16" font-family="monospace" font-size="6" font-weight="700" fill="#00f0ff">15%</text>
  <!-- left form -->
  <rect x="4" y="26" width="100" height="148" rx="6" fill="rgba(255,255,255,0.01)" stroke="rgba(255,255,255,0.03)" stroke-width="0.5"/>
  <text x="10" y="35" font-family="system-ui,sans-serif" font-size="5" font-weight="700" fill="#475569">NEW GOAL</text>
  <rect x="8" y="40" width="92" height="14" rx="3" fill="rgba(255,255,255,0.02)" stroke="rgba(255,255,255,0.03)" stroke-width="0.5"/>
  <text x="12" y="51" font-family="system-ui,sans-serif" font-size="5" fill="#64748b">Goal Name</text>
  <rect x="8" y="56" width="92" height="14" rx="3" fill="rgba(255,255,255,0.02)"/>
  <text x="12" y="67" font-family="system-ui,sans-serif" font-size="5" fill="#64748b">Target ($)</text>
  <rect x="8" y="72" width="92" height="14" rx="3" fill="rgba(255,255,255,0.02)"/>
  <text x="12" y="83" font-family="system-ui,sans-serif" font-size="5" fill="#64748b">Saved ($)</text>
  <rect x="8" y="88" width="92" height="14" rx="3" fill="rgba(255,255,255,0.02)"/>
  <text x="12" y="99" font-family="system-ui,sans-serif" font-size="5" fill="#64748b">Monthly ($)</text>
  <rect x="8" y="104" width="92" height="14" rx="3" fill="rgba(255,255,255,0.02)"/>
  <text x="12" y="115" font-family="system-ui,sans-serif" font-size="5" fill="#64748b">Deadline (mo)</text>
  <rect x="8" y="124" width="92" height="16" rx="4" fill="#00f0ff"/>
  <text x="54" y="136" font-family="system-ui,sans-serif" font-size="6" font-weight="600" fill="#05070c" text-anchor="middle">Create Goal</text>
  <!-- center rings -->
  <rect x="108" y="26" width="100" height="148" rx="6" fill="rgba(255,255,255,0.01)" stroke="rgba(255,255,255,0.03)" stroke-width="0.5"/>
  <text x="114" y="35" font-family="system-ui,sans-serif" font-size="5" font-weight="700" fill="#475569">OVERVIEW</text>
  <circle cx="158" cy="108" r="44" fill="none" stroke="rgba(255,255,255,0.03)" stroke-width="8"/>
  <circle cx="158" cy="108" r="44" fill="none" stroke="#00f0ff" stroke-width="8" stroke-dasharray="60 216" stroke-linecap="round" transform="rotate(-90 158 108)"/>
  <circle cx="158" cy="108" r="34" fill="none" stroke="rgba(255,255,255,0.03)" stroke-width="8"/>
  <circle cx="158" cy="108" r="34" fill="none" stroke="#10b981" stroke-width="8" stroke-dasharray="40 173" stroke-linecap="round" transform="rotate(-90 158 108)"/>
  <circle cx="158" cy="108" r="24" fill="none" stroke="rgba(255,255,255,0.03)" stroke-width="8"/>
  <circle cx="158" cy="108" r="24" fill="none" stroke="#f59e0b" stroke-width="8" stroke-dasharray="30 120" stroke-linecap="round" transform="rotate(-90 158 108)"/>
  <!-- center text -->
  <text x="158" y="108" font-family="monospace" font-size="10" font-weight="700" fill="#00f0ff" text-anchor="middle">$31.7K</text>
  <!-- right goals list -->
  <rect x="212" y="26" width="104" height="148" rx="6" fill="rgba(255,255,255,0.01)" stroke="rgba(255,255,255,0.03)" stroke-width="0.5"/>
  <text x="218" y="35" font-family="system-ui,sans-serif" font-size="5" font-weight="700" fill="#475569">ACTIVE GOALS</text>
  <rect x="216" y="40" width="96" height="54" rx="4" fill="rgba(255,255,255,0.01)" stroke="rgba(255,255,255,0.03)" stroke-width="0.3"/>
  <text x="220" y="50" font-family="system-ui,sans-serif" font-size="6" font-weight="700" fill="#e2e8f0">Emergency Fund</text>
  <text x="220" y="60" font-family="monospace" font-size="5" fill="#64748b">$8.5K / $30K · 28%</text>
  <rect x="220" y="64" width="88" height="3" rx="2" fill="rgba(255,255,255,0.04)"/>
  <rect x="220" y="64" width="25" height="3" rx="2" fill="#00f0ff"/>
  <rect x="216" y="80" width="96" height="18" rx="3" fill="none"/>
  <rect x="220" y="82" width="50" height="14" rx="2" fill="rgba(255,255,255,0.02)" stroke="rgba(255,255,255,0.03)" stroke-width="0.3"/>
  <text x="224" y="93" font-family="system-ui,sans-serif" font-size="5" fill="#64748b">Amount $</text>
  <rect x="274" y="82" width="34" height="14" rx="3" fill="rgba(16,185,129,0.08)" stroke="rgba(16,185,129,0.15)" stroke-width="0.5"/>
  <text x="291" y="93" font-family="system-ui,sans-serif" font-size="5" fill="#10b981" text-anchor="middle">Top Up</text>
  <!-- footer -->
  <rect x="4" y="178" width="312" height="18" rx="5" fill="rgba(255,255,255,0.01)" stroke="rgba(255,255,255,0.02)" stroke-width="0.5"/>
  <rect x="6" y="179" width="80" height="16" rx="3" fill="rgba(255,255,255,0.02)" stroke="rgba(255,255,255,0.03)" stroke-width="0.3"/>
  <text x="22" y="191" font-family="system-ui,sans-serif" font-size="5" fill="#e2e8f0">Flush Ledger</text>
  <rect x="90" y="179" width="80" height="16" rx="3" fill="rgba(255,255,255,0.02)" stroke="rgba(255,255,255,0.03)" stroke-width="0.3"/>
  <text x="110" y="191" font-family="system-ui,sans-serif" font-size="5" fill="#e2e8f0">Load Samples</text>
</svg>
