<svg xmlns="http://www.w3.org/2000/svg" viewBox="0 0 800 500" width="100%" height="100%">
  <defs>
    <linearGradient id="bgGrad" x1="0%" y1="0%" x2="100%" y2="100%">
      <stop offset="0%" stop-color="#040508" />
      <stop offset="50%" stop-color="#070a12" />
      <stop offset="100%" stop-color="#0e1424" />
    </linearGradient>

    <filter id="panelGlow" x="-10%" y="-10%" width="120%" height="120%">
      <feDropShadow dx="0" dy="16" stdDeviation="24" flood-color="#000000" flood-opacity="0.85"/>
      <feDropShadow dx="0" dy="2" stdDeviation="4" flood-color="#ff0055" flood-opacity="0.03"/>
    </filter>

    <filter id="chronoGlow" x="-30%" y="-30%" width="160%" height="160%">
      <feGaussianBlur stdDeviation="5" result="blur" />
      <feComposite in="SourceGraphic" in2="blur" operator="over" />
    </filter>

    <linearGradient id="chronoBrand" x1="0%" y1="0%" x2="100%" y2="0%">
      <stop offset="0%" stop-color="#ff0055" />
      <stop offset="100%" stop-color="#f59e0b" />
    </linearGradient>

    <pattern id="uiGrid" width="24" height="24" patternUnits="userSpaceOnUse">
      <path d="M 24 0 L 0 0 0 24" fill="none" stroke="rgba(245, 158, 11, 0.02)" stroke-width="1"/>
    </pattern>
  </defs>

  <rect width="800" height="500" fill="url(#bgGrad)" />
  <rect width="800" height="500" fill="url(#uiGrid)" />
  
  <circle cx="700" cy="380" r="180" fill="#f59e0b" opacity="0.02" filter="blur(50px)" />
  <circle cx="120" cy="120" r="200" fill="#ff0055" opacity="0.02" filter="blur(60px)" />

  <g transform="translate(50, 45)" filter="url(#panelGlow)">
    <rect width="700" height="380" rx="16" fill="#111827" stroke="rgba(245, 158, 11, 0.08)" stroke-width="1.5"/>
    
    <circle cx="24" cy="22" r="5" fill="#ff0055" opacity="0.7"/>
    <circle cx="40" cy="22" r="5" fill="#f59e0b" opacity="0.7"/>
    <circle cx="56" cy="22" r="5" fill="#10b981" opacity="0.7"/>

    <g transform="translate(535, 15)">
      <circle cx="5" cy="6" r="4" fill="url(#chronoBrand)" />
      <text x="14" y="10" font-family="-apple-system, sans-serif" font-size="11" font-weight="800" fill="#f8fafc" letter-spacing="0.05em">CHRONO_SWEEPER_v2</text>
    </g>

    <g transform="translate(20, 64)">
      <text x="0" y="14" font-family="-apple-system, sans-serif" font-size="14" font-weight="800" fill="#ffffff" letter-spacing="-0.01em">Vector Logistics</text>
      
      <g filter="url(#chronoGlow)">
        <rect y="24" width="126" height="26" rx="6" fill="rgba(255, 0, 85, 0.1)" stroke="#ff0055" stroke-width="1"/>
        <text x="12" y="41" font-family="monospace" font-size="10" font-weight="900" fill="#ff0055" letter-spacing="0.02em">INTERVAL: 3.4s</text>
      </g>

      <g transform="translate(0, 68)">
        <rect width="126" height="42" rx="8" fill="#1f2937" opacity="0.5" stroke="rgba(148, 163, 184, 0.04)" stroke-width="1"/>
        <text x="10" y="16" font-family="-apple-system, sans-serif" font-size="8" font-weight="700" fill="#475569" letter-spacing="0.05em">CLEARANCE RATE</text>
        <text x="10" y="34" font-family="monospace" font-size="13" font-weight="800" fill="#10b981">64 / 256 Cells</text>
      </g>

      <g transform="translate(0, 122)">
        <rect width="126" height="42" rx="8" fill="#1f2937" opacity="0.5" stroke="rgba(148, 163, 184, 0.04)" stroke-width="1"/>
        <text x="10" y="16" font-family="-apple-system, sans-serif" font-size="8" font-weight="700" fill="#475569" letter-spacing="0.05em">THREAT THRESHOLD</text>
        <text x="10" y="34" font-family="monospace" font-size="13" font-weight="800" fill="#f59e0b">40 Vector Mines</text>
      </g>

      <rect y="188" width="126" height="30" rx="6" fill="#1f2937" stroke="rgba(148, 163, 184, 0.1)" stroke-width="1"/>
      <text x="63" y="207" font-family="-apple-system, sans-serif" font-size="10" font-weight="700" fill="#f8fafc" text-anchor="middle">Flush Grid Matrix</text>
    </g>

    <line x1="162" y1="46" x2="162" y2="380" stroke="rgba(148, 163, 184, 0.08)" stroke-width="1"/>

    <g transform="translate(230, 64)">
      <rect width="44" height="44" rx="4" fill="rgba(168, 85, 247, 0.05)" stroke="rgba(168, 85, 247, 0.2)" stroke-width="1"/>
      <text x="22" y="28" font-family="monospace" font-size="14" font-weight="800" fill="#a855f7" text-anchor="middle">1</text>
      
      <rect x="52" y="0" width="44" height="44" rx="4" fill="#1f2937" stroke="rgba(148, 163, 184, 0.08)" stroke-width="1"/>
      
      <rect x="104" y="0" width="44" height="44" rx="4" fill="#1f2937" stroke="rgba(148, 163, 184, 0.08)" stroke-width="1"/>
      
      <rect x="156" y="0" width="44" height="44" rx="4" fill="rgba(245, 158, 11, 0.05)" stroke="rgba(245, 158, 11, 0.2)" stroke-width="1"/>
      <text x="178" y="28" font-family="monospace" font-size="14" font-weight="800" fill="#f59e0b" text-anchor="middle">2</text>

      <rect y="52" width="44" height="44" rx="4" fill="rgba(168, 85, 247, 0.05)" stroke="rgba(168, 85, 247, 0.2)" stroke-width="1"/>
      <text x="22" y="80" font-family="monospace" font-size="14" font-weight="800" fill="#a855f7" text-anchor="middle">1</text>
      
      <g transform="translate(52, 52)">
        <rect width="44" height="44" rx="4" fill="rgba(255, 0, 85, 0.08)" stroke="#ff0055" stroke-width="1.5"/>
        <text x="22" y="28" font-family="-apple-system, sans-serif" font-size="14" font-weight="800" fill="#ff0055" text-anchor="middle">⚑</text>
      </g>
      
      <rect x="104" y="52" width="44" height="44" rx="4" fill="#090d16" stroke="rgba(148, 163, 184, 0.03)" stroke-width="1"/>
      <text x="126" y="80" font-family="monospace" font-size="14" font-weight="700" fill="#334155" text-anchor="middle">0</text>
      
      <rect x="156" y="52" width="44" height="44" rx="4" fill="rgba(56, 189, 248, 0.05)" stroke="rgba(56, 189, 248, 0.2)" stroke-width="1"/>
      <text x="178" y="80" font-family="monospace" font-size="14" font-weight="800" fill="#38bdf8" text-anchor="middle">3</text>

      <rect y="104" width="44" height="44" rx="4" fill="#090d16" stroke="rgba(148, 163, 184, 0.03)" stroke-width="1"/>
      <text x="22" y="132" font-family="monospace" font-size="14" font-weight="700" fill="#334155" text-anchor="middle">0</text>
      
      <rect x="52" y="104" width="44" height="44" rx="4" fill="#090d16" stroke="rgba(148, 163, 184, 0.03)" stroke-width="1"/>
      <text x="74" y="132" font-family="monospace" font-size="14" font-weight="700" fill="#334155" text-anchor="middle">0</text>
      
      <rect x="104" y="104" width="44" height="44" rx="4" fill="rgba(168, 85, 247, 0.05)" stroke="rgba(168, 85, 247, 0.2)" stroke-width="1"/>
      <text x="126" y="132" font-family="monospace" font-size="14" font-weight="800" fill="#a855f7" text-anchor="middle">1</text>
      
      <rect x="156" y="104" width="44" height="44" rx="4" fill="#1f2937" stroke="rgba(148, 163, 184, 0.08)" stroke-width="1"/>

      <rect y="156" width="44" height="44" rx="4" fill="#1f2937" stroke="rgba(148, 163, 184, 0.08)" stroke-width="1"/>
      <rect x="52" y="156" width="44" height="44" rx="4" fill="#1f2937" stroke="rgba(148, 163, 184, 0.08)" stroke-width="1"/>
      <rect x="104" y="156" width="44" height="44" rx="4" fill="#1f2937" stroke="rgba(148, 163, 184, 0.08)" stroke-width="1"/>
      <rect x="156" y="156" width="44" height="44" rx="4" fill="#1f2937" stroke="rgba(148, 163, 184, 0.08)" stroke-width="1"/>
    </g>
  </g>

  <g transform="translate(180, 440)">
    <rect width="440" height="42" rx="21" fill="rgba(4, 5, 8, 0.95)" stroke="rgba(245, 158, 11, 0.15)" stroke-width="1.5"/>
    
    <text x="28" y="26" font-family="-apple-system, BlinkMacSystemFont, sans-serif" font-size="11" font-weight="800" fill="#f8fafc" letter-spacing="0.06em">PROXIMITY VECTOR MATRIX</text>
    <circle cx="196" cy="22" r="2" fill="#475569" />
    
    <text x="212" y="26" font-family="monospace" font-size="12" font-weight="700" fill="#38bdf8">HTML5</text>
    <text x="262" y="26" font-family="monospace" font-size="12" font-weight="700" fill="#10b981">CSS3</text>
    <text x="308" y="26" font-family="monospace" font-size="12" font-weight="700" fill="#f59e0b">ES6+</text>
    
    <rect x="352" y="13" width="64" height="16" rx="4" fill="rgba(255, 0, 85, 0.08)" stroke="rgba(255, 0, 85, 0.15)" stroke-width="1"/>
    <text x="358" y="24" font-family="-apple-system, sans-serif" font-size="8" font-weight="800" fill="#ff0055" letter-spacing="0.02em">FLOOD_FILL</text>
  </g>
</svg>
