<svg xmlns="http://www.w3.org/2000/svg" viewBox="0 0 400 300">
  <rect width="400" height="300" fill="#f3f2ef"/>
  <rect x="0" y="0" width="400" height="36" fill="#ffffff" stroke="#e0dfdc" stroke-width="1"/>
  <rect x="8" y="6" width="80" height="24" rx="4" fill="#0a66c2"/>
  <rect x="100" y="10" width="120" height="16" rx="8" fill="#eef3f8"/>
  <circle cx="310" cy="18" r="10" fill="#e0dfdc"/>
  <circle cx="340" cy="18" r="10" fill="#e0dfdc"/>
  <circle cx="370" cy="18" r="10" fill="#e0dfdc"/>
  <rect x="8" y="44" width="88" height="248" rx="6" fill="#ffffff" stroke="#e0dfdc" stroke-width="1"/>
  <rect x="14" y="52" width="76" height="36" rx="4" fill="#0a66c2"/>
  <rect x="14" y="94" width="40" height="10" rx="2" fill="#191919"/>
  <rect x="14" y="108" width="60" height="8" rx="2" fill="#666666"/>
  <rect x="14" y="122" width="50" height="8" rx="2" fill="#666666"/>
  <line x1="14" y1="140" x2="90" y2="140" stroke="#e0dfdc" stroke-width="1"/>
  <rect x="14" y="150" width="30" height="30" rx="15" fill="#e0dfdc"/>
  <rect x="14" y="188" width="56" height="8" rx="2" fill="#191919"/>
  <rect x="14" y="200" width="40" height="6" rx="2" fill="#0a66c2"/>
  <rect x="14" y="214" width="56" height="8" rx="2" fill="#191919"/>
  <rect x="14" y="226" width="40" height="6" rx="2" fill="#0a66c2"/>
  <rect x="104" y="44" width="184" height="248" rx="6" fill="#ffffff" stroke="#e0dfdc" stroke-width="1"/>
  <rect x="110" y="52" width="172" height="56" rx="4" fill="#0a66c2"/>
  <rect x="110" y="52" width="60" height="56" rx="4" fill="#f3f2ef"/>
  <circle cx="140" cy="72" r="14" fill="#0a66c2"/>
  <rect x="180" y="58" width="60" height="8" rx="2" fill="#ffffff"/>
  <rect x="180" y="70" width="80" height="6" rx="2" fill="#ffffff" opacity="0.7"/>
  <rect x="180" y="80" width="30" height="6" rx="2" fill="#ffffff" opacity="0.5"/>
  <rect x="110" y="116" width="172" height="40" rx="4" fill="#f3f2ef"/>
  <rect x="120" y="126" width="140" height="20" rx="10" fill="#ffffff" stroke="#0a66c2" stroke-width="1"/>
  <rect x="110" y="164" width="172" height="80" rx="6" fill="#f3f2ef"/>
  <rect x="118" y="176" width="100" height="8" rx="2" fill="#191919"/>
  <rect x="118" y="190" width="156" height="6" rx="2" fill="#666666"/>
  <rect x="118" y="200" width="140" height="6" rx="2" fill="#666666"/>
  <rect x="118" y="214" width="40" height="6" rx="2" fill="#0a66c2"/>
  <circle cx="160" cy="214" r="8" fill="#0a66c2"/>
  <rect x="296" y="44" width="96" height="200" rx="6" fill="#ffffff" stroke="#e0dfdc" stroke-width="1"/>
  <rect x="304" y="54" width="80" height="8" rx="2" fill="#191919"/>
  <rect x="304" y="70" width="24" height="24" rx="12" fill="#e0dfdc"/>
  <rect x="334" y="74" width="40" height="6" rx="2" fill="#191919"/>
  <rect x="334" y="82" width="30" height="4" rx="2" fill="#666666"/>
  <rect x="304" y="100" width="60" height="6" rx="2" fill="#0a66c2"/>
  <rect x="304" y="116" width="24" height="24" rx="12" fill="#e0dfdc"/>
  <rect x="334" y="120" width="40" height="6" rx="2" fill="#191919"/>
  <rect x="334" y="128" width="30" height="4" rx="2" fill="#666666"/>
  <rect x="304" y="146" width="60" height="6" rx="2" fill="#0a66c2"/>
</svg>
