<svg xmlns="http://www.w3.org/2000/svg" viewBox="0 0 320 200">
  <rect width="320" height="200" fill="#141414"/>
  <rect y="0" width="320" height="50" fill="#000" opacity="0.8"/>
  <rect x="16" y="10" width="72" height="28" rx="4" fill="#E50914"/>
  <rect x="100" y="17" width="54" height="4" rx="2" fill="#e5e5e5"/>
  <rect x="162" y="17" width="44" height="4" rx="2" fill="#808080"/>
  <rect x="214" y="17" width="48" height="4" rx="2" fill="#808080"/>
  <rect x="270" y="17" width="30" height="4" rx="2" fill="#808080"/>
  <rect x="290" y="8" width="14" height="32" rx="6" fill="#808080"/>
  <g transform="translate(12 60)">
    <text font-family="Arial,Helvetica,sans-serif" font-size="14" font-weight="700" fill="#fff">Stranger Things</text>
    <text y="44" font-family="Arial,Helvetica,sans-serif" font-size="7" fill="#e5e5e5">
      <tspan x="0" dy="0">When a young boy vanishes, a small</tspan>
      <tspan x="0" dy="8">town uncovers a mystery involving</tspan>
      <tspan x="0" dy="8">secret experiments...</tspan>
    </text>
  </g>
  <g transform="translate(12 130)">
    <text font-family="Arial,Helvetica,sans-serif" font-size="11" font-weight="600" fill="#e5e5e5">Trending Now</text>
    <g transform="translate(0 18)">
      <rect x="0" y="0" width="56" height="32" rx="3" fill="#2a2a2a"/>
      <rect x="64" y="0" width="56" height="32" rx="3" fill="#333"/>
      <rect x="128" y="0" width="56" height="32" rx="3" fill="#2a2a2a"/>
      <rect x="192" y="0" width="56" height="32" rx="3" fill="#333"/>
      <rect x="256" y="0" width="56" height="32" rx="3" fill="#2a2a2a"/>
    </g>
  </g>
</svg>
