<svg xmlns="http://www.w3.org/2000/svg" viewBox="0 0 320 200">
  <rect width="320" height="200" fill="#efe1cf"/>
  <g transform="translate(40 30)">
    <rect width="160" height="140" rx="14" fill="#fbf8f3" stroke="#b86a2b" stroke-width="2"/>
    <rect x="16" y="20" width="100" height="10" rx="5" fill="#1c1c1e"/>
    <rect x="16" y="42" width="128" height="6" rx="3" fill="#d6cfc1"/>
    <rect x="16" y="56" width="110" height="6" rx="3" fill="#d6cfc1"/>
    <rect x="16" y="70" width="80" height="6" rx="3" fill="#d6cfc1"/>
    <rect x="16" y="96" width="44" height="16" rx="8" fill="#b86a2b" opacity="0.18"/>
    <rect x="68" y="96" width="36" height="16" rx="8" fill="#b86a2b" opacity="0.18"/>
  </g>
  <g transform="translate(180 70)">
    <rect width="120" height="100" rx="14" fill="#1c1c1e"/>
    <rect x="14" y="18" width="80" height="10" rx="5" fill="#fbf8f3"/>
    <rect x="14" y="38" width="92" height="6" rx="3" fill="#6e6e73"/>
    <rect x="14" y="50" width="70" height="6" rx="3" fill="#6e6e73"/>
    <rect x="14" y="74" width="48" height="14" rx="7" fill="#b86a2b"/>
  </g>
</svg>
