<svg xmlns="http://www.w3.org/2000/svg" viewBox="0 0 800 500" width="100%" height="100%">
  <rect width="800" height="500" rx="20" fill="#0b0f19"/>
  <rect x="20" y="20" width="760" height="460" rx="14" fill="#161f30" stroke="#334155" stroke-width="2"/>
  
  <rect x="40" y="40" width="170" height="420" rx="10" fill="#1e293b" stroke="#334155" stroke-width="1.5"/>
  <text x="56" y="75" font-family="sans-serif" font-size="18" font-weight="800" fill="#3b82f6">PlanIt</text>
  <rect x="56" y="100" width="138" height="30" rx="6" fill="#0f172a"/>
  
  <text x="240" y="70" font-family="sans-serif" font-size="20" font-weight="700" fill="#f8fafc">June 2026</text>
  
  <rect x="240" y="100" width="60" height="60" rx="6" fill="#1e293b"/>
  <text x="250" y="120" font-family="sans-serif" font-size="12" font-weight="600" fill="#94a3b8">01</text>
  
  <rect x="310" y="100" width="60" height="60" rx="6" fill="#1e293b"/>
  <text x="320" y="120" font-family="sans-serif" font-size="12" font-weight="600" fill="#94a3b8">02</text>
  
  <rect x="380" y="100" width="60" height="60" rx="6" fill="#1e293b"/>
  <text x="390" y="120" font-family="sans-serif" font-size="12" font-weight="600" fill="#94a3b8">03</text>
  
  <rect x="450" y="100" width="60" height="60" rx="6" fill="#3b82f6"/>
  <text x="460" y="120" font-family="sans-serif" font-size="12" font-weight="700" fill="#ffffff">04</text>
  <circle cx="465" cy="145" r="4" fill="#38bdf8"/>
  <circle cx="475" cy="145" r="4" fill="#f43f5e"/>

  <rect x="240" y="170" width="60" height="60" rx="6" fill="#1e293b"/>
  <text x="250" y="190" font-family="sans-serif" font-size="12" font-weight="600" fill="#94a3b8">08</text>
  
  <rect x="310" y="170" width="60" height="60" rx="6" fill="#1e293b"/>
  <text x="320" y="190" font-family="sans-serif" font-size="12" font-weight="600" fill="#94a3b8">09</text>
  
  <rect x="540" y="40" width="210" height="420" rx="10" fill="#1e293b" opacity="0.6" stroke="#334155"/>
  <text x="560" y="75" font-family="sans-serif" font-size="14" font-weight="700" fill="#94a3b8">SELECTED AGENDA</text>
  <text x="560" y="100" font-family="sans-serif" font-size="16" font-weight="700" fill="#f8fafc">Thu, Jun 4</text>
  
  <rect x="560" y="125" width="170" height="50" rx="6" fill="#161f30" stroke="#38bdf8" stroke-width="2"/>
  <text x="572" y="146" font-family="sans-serif" font-size="12" font-weight="700" fill="#f8fafc">NSoC Coding Sync</text>
  <text x="572" y="163" font-family="sans-serif" font-size="10" fill="#94a3b8">⏰ 14:30</text>
</svg>
