<svg xmlns="http://www.w3.org/2000/svg" viewBox="0 0 400 300">
  <rect width="400" height="300" fill="#0f172a"/>
  <rect x="20" y="16" width="360" height="32" rx="6" fill="#1e293b"/>
  <rect x="30" y="24" width="60" height="16" rx="3" fill="#6366f1"/>
  <rect x="280" y="24" width="80" height="16" rx="8" fill="#1e293b" stroke="#6366f1" stroke-width="1"/>
  <rect x="110" y="24" width="40" height="16" rx="3" fill="#ffffff12"/>
  <rect x="160" y="24" width="50" height="16" rx="3" fill="#ffffff12"/>
  <rect x="220" y="24" width="40" height="16" rx="3" fill="#ffffff12"/>
  <rect x="20" y="68" width="90" height="180" rx="8" fill="#1e293b"/>
  <rect x="30" y="80" width="50" height="8" rx="2" fill="#64748b"/>
  <rect x="30" y="96" width="16" height="16" rx="3" fill="#6366f1"/>
  <rect x="52" y="100" width="40" height="8" rx="2" fill="#64748b"/>
  <rect x="30" y="118" width="60" height="6" rx="3" fill="#ffffff12"/>
  <rect x="30" y="130" width="40" height="6" rx="3" fill="#ffffff12"/>
  <rect x="30" y="142" width="70" height="6" rx="3" fill="#6366f1" opacity="0.5"/>
  <rect x="30" y="158" width="50" height="4" rx="2" fill="#475569"/>
  <rect x="30" y="172" width="20" height="20" rx="4" fill="#6366f1"/>
  <rect x="60" y="172" width="20" height="20" rx="4" fill="#6366f1" opacity="0.6"/>
  <rect x="90" y="172" width="20" height="20" rx="4" fill="#6366f1" opacity="0.3"/>
  <rect x="30" y="204" width="36" height="8" rx="2" fill="#94a3b8"/>
  <rect x="30" y="218" width="24" height="24" rx="4" fill="#ef4444"/>
  <rect x="58" y="228" width="30" height="6" rx="2" fill="#64748b"/>
  <rect x="120" y="68" width="130" height="88" rx="8" fill="#1e293b"/>
  <rect x="130" y="108" width="36" height="36" rx="6" fill="#6366f1" opacity="0.8"/>
  <rect x="172" y="110" width="20" height="6" rx="2" fill="#64748b"/>
  <rect x="172" y="120" width="40" height="6" rx="2" fill="#64748b"/>
  <rect x="172" y="130" width="30" height="6" rx="2" fill="#475569"/>
  <rect x="120" y="168" width="130" height="80" rx="8" fill="#1e293b"/>
  <rect x="260" y="68" width="120" height="88" rx="8" fill="#1e293b"/>
  <rect x="270" y="108" width="36" height="36" rx="6" fill="#6366f1" opacity="0.8"/>
  <rect x="312" y="110" width="20" height="6" rx="2" fill="#64748b"/>
  <rect x="312" y="120" width="40" height="6" rx="2" fill="#64748b"/>
  <rect x="312" y="130" width="30" height="6" rx="2" fill="#475569"/>
  <rect x="260" y="168" width="120" height="80" rx="8" fill="#1e293b"/>
  <rect x="120" y="178" width="60" height="20" rx="4" fill="#10b981" opacity="0.8"/>
  <rect x="270" y="178" width="60" height="20" rx="4" fill="#10b981" opacity="0.8"/>
  <rect x="120" y="208" width="16" height="16" rx="3" fill="#f59e0b"/>
  <rect x="140" y="212" width="50" height="8" rx="2" fill="#64748b"/>
  <rect x="270" y="208" width="60" height="8" rx="2" fill="#64748b"/>
  <circle cx="268" cy="32" r="6" fill="#ef4444"/>
  <text x="268" y="35" font-size="8" fill="#fff" text-anchor="middle" font-weight="bold">3</text>
</svg>
