<svg xmlns="http://www.w3.org/2000/svg" viewBox="0 0 128 128">
  <rect width="128" height="128" rx="16" fill="#0b132b"/>
  <rect x="14" y="14" width="100" height="100" rx="6" fill="rgba(34,46,80,0.5)"/>
  <rect x="14" y="14" width="100" height="100" rx="6" fill="none" stroke="rgba(255,255,255,0.06)" stroke-width="1"/>
  <rect x="24" y="24" width="18" height="18" rx="2" fill="#222e50"/>
  <rect x="44" y="24" width="18" height="18" rx="2" fill="#222e50"/>
  <rect x="64" y="24" width="18" height="18" rx="2" fill="#222e50"/>
  <rect x="84" y="24" width="18" height="18" rx="2" fill="#10b981"/>
  <rect x="24" y="44" width="18" height="18" rx="2" fill="#10b981"/>
  <rect x="44" y="44" width="18" height="18" rx="2" fill="#10b981"/>
  <rect x="64" y="44" width="18" height="18" rx="2" fill="#222e50"/>
  <rect x="84" y="44" width="18" height="18" rx="2" fill="#38bdf8"/>
  <rect x="24" y="64" width="18" height="18" rx="2" fill="#10b981"/>
  <rect x="44" y="64" width="18" height="18" rx="2" fill="#10b981"/>
  <rect x="64" y="64" width="18" height="18" rx="2" fill="#38bdf8"/>
  <rect x="84" y="64" width="18" height="18" rx="2" fill="#38bdf8"/>
  <rect x="24" y="84" width="18" height="18" rx="2" fill="#222e50"/>
  <rect x="44" y="84" width="18" height="18" rx="2" fill="#38bdf8"/>
  <rect x="64" y="84" width="18" height="18" rx="2" fill="#38bdf8"/>
  <rect x="84" y="84" width="18" height="18" rx="2" fill="#38bdf8"/>
  <text x="53" y="36" font-size="7" fill="#0b132b" font-weight="700" text-anchor="middle" font-family="system-ui">3</text>
  <text x="93" y="36" font-size="7" fill="#0b132b" font-weight="700" text-anchor="middle" font-family="system-ui">2</text>
</svg>
