<svg xmlns="http://www.w3.org/2000/svg" viewBox="0 0 800 500" width="100%" height="100%">
  <rect width="800" height="500" rx="20" fill="#0b0f19"/>
  <rect x="20" y="20" width="760" height="460" rx="14" fill="#161f30" stroke="#334155" stroke-width="2"/>
  
  <rect x="40" y="40" width="180" height="420" rx="8" fill="#0f172a" opacity="0.5"/>
  <text x="60" y="80" font-family="sans-serif" font-size="22" font-weight="800" fill="#3b82f6">RoamPlan</text>
  <rect x="60" y="110" width="65" height="28" rx="6" fill="#1e293b"/>
  <text x="72" y="128" font-family="sans-serif" font-size="12" font-weight="700" fill="#f8fafc">✈️ Flights</text>

  <text x="250" y="75" font-family="sans-serif" font-size="18" font-weight="700" fill="#f8fafc">Available Departures</text>
  
  <rect x="250" y="100" width="300" height="80" rx="10" fill="#1e293b" stroke="#10b981" stroke-width="2"/>
  <text x="270" y="135" font-family="sans-serif" font-size="16" font-weight="700" fill="#f8fafc">IndiGo 6E-204</text>
  <text x="270" y="158" font-family="sans-serif" font-size="12" fill="#94a3b8">Non-stop • 1h 45m</text>
  <text x="490" y="145" font-family="sans-serif" font-size="18" font-weight="700" fill="#10b981">₹5,400</text>

  <rect x="250" y="195" width="300" height="80" rx="10" fill="#1e293b" opacity="0.6"/>
  <text x="270" y="230" font-family="sans-serif" font-size="16" font-weight="700" fill="#f8fafc">Air India AI-412</text>
  
  <rect x="580" y="40" width="180" height="420" rx="8" fill="#1e293b" stroke="#334155"/>
  <text x="600" y="75" font-family="sans-serif" font-size="16" font-weight="700" fill="#f8fafc">Trip Overview</text>
  <text x="600" y="120" font-family="sans-serif" font-size="11" fill="#94a3b8">TOTAL ESTIMATED COST</text>
  <text x="600" y="150" font-family="sans-serif" font-size="24" font-weight="800" fill="#10b981">₹6,048</text>
  <rect x="600" y="390" width="140" height="35" rx="6" fill="#10b981"/>
  <text x="670" y="412" font-family="sans-serif" font-size="13" font-weight="700" fill="#ffffff" text-anchor="middle">Confirm</text>
</svg>
